HIERARCHY
ROOT hip
{
	OFFSET 0.000000 0.000000 0.000000 
	CHANNELS 6 Xposition Yposition Zposition Xrotation Zrotation Yrotation
	JOINT abdomen
	{
		OFFSET 0.000000 3.402643 0.000000 
		CHANNELS 3 Xrotation Zrotation Yrotation
		JOINT chest
		{
			OFFSET 0.000000 8.438565 -0.680529 
			CHANNELS 3 Xrotation Zrotation Yrotation
			JOINT neck
			{
				OFFSET 0.000000 10.207942 -0.272212 
				CHANNELS 3 Xrotation Zrotation Yrotation
				JOINT head
				{
					OFFSET 0.000000 3.130431 0.000000 
					CHANNELS 3 Xrotation Zrotation Yrotation
					End Site
					{
						OFFSET 0.000000 3.130435 0.000000 
					}
				}
			}
			JOINT lCollar
			{
				OFFSET 3.470700 6.669187 -0.816635 
				CHANNELS 3 Yrotation Zrotation Xrotation
				JOINT lShldr
				{
					OFFSET 3.198488 0.000000 0.000000 
					CHANNELS 3 Zrotation Yrotation Xrotation
					JOINT lForeArm
					{
						OFFSET 10.139888 0.000000 0.000000 
						CHANNELS 3 Yrotation Zrotation Xrotation
						JOINT lHand
						{
							OFFSET 8.370511 0.000000 0.000000 
							CHANNELS 3 Zrotation Yrotation Xrotation
							End Site
							{
								OFFSET 4.083176 0.000000 0.000000 
							}
						}
					}
				}
			}
			JOINT rCollar
			{
				OFFSET -3.470700 6.669187 -0.816635 
				CHANNELS 3 Yrotation Zrotation Xrotation
				JOINT rShldr
				{
					OFFSET -3.198488 0.000000 0.000000 
					CHANNELS 3 Zrotation Yrotation Xrotation
					JOINT rForeArm
					{
						OFFSET -10.139888 0.000000 0.000000 
						CHANNELS 3 Yrotation Zrotation Xrotation
						JOINT rHand
						{
							OFFSET -8.370511 0.000000 0.000000 
							CHANNELS 3 Zrotation Yrotation Xrotation
							End Site
							{
								OFFSET -4.083176 0.000000 0.000000 
							}
						}
					}
				}
			}
		}
	}
	JOINT lThigh
	{
		OFFSET 5.308129 -1.633274 1.361059 
		CHANNELS 3 Xrotation Zrotation Yrotation
		JOINT lShin
		{
			OFFSET -2.041588 -20.007561 0.000000 
			CHANNELS 3 Xrotation Zrotation Yrotation
			JOINT lFoot
			{
				OFFSET 0.000000 -19.190928 -1.224953 
				CHANNELS 3 Xrotation Yrotation Zrotation
				End Site
				{
					OFFSET 0.000000 -2.449906 4.627600 
				}
			}
		}
	}
	JOINT rThigh
	{
		OFFSET -5.308129 -1.633274 1.361059 
		CHANNELS 3 Xrotation Zrotation Yrotation
		JOINT rShin
		{
			OFFSET 2.041588 -20.007561 0.000000 
			CHANNELS 3 Xrotation Zrotation Yrotation
			JOINT rFoot
			{
				OFFSET 0.000000 -19.190928 -1.224953 
				CHANNELS 3 Xrotation Yrotation Zrotation
				End Site
				{
					OFFSET 0.000000 -2.449906 4.627600 
				}
			}
		}
	}
}
MOTION
Frames: 18
Frame Time: 0.016667
10.431795 32.700924 32.847622 -22.229015 16.664774 107.127419 58.113888 -7.089156 16.600008 -2.435157 5.789336 -6.268094 -21.251299 3.722770 -1.048997 -1.191514 9.176127 4.095485 -10.859875 10.530131 0.552509 -47.277699 -63.034428 10.417496 -107.347343 -4.411333 -0.781496 2.417464 -13.384946 15.400615 8.036275 -1.305682 0.060081 67.268990 33.288513 30.411884 138.949112 -5.000000 29.931688 -11.161176 2.167897 6.042191 8.664261 35.844109 39.988113 114.226799 9.969928 -20.466230 -20.206432 10.569168 -24.447727 -67.589119 -0.537294 -5.087343 77.715462 2.326150 14.069681 -20.140980 1.580503 25.846540 
9.795357 32.784931 32.046986 -23.886421 16.088484 103.145844 57.605038 -5.863070 16.407005 -2.207105 5.963179 -6.681007 -21.132671 4.016163 -1.132787 -0.821862 9.010404 4.904660 -11.170770 10.364346 0.542185 -49.397797 -60.478996 11.650608 -108.223106 -4.916087 -1.007898 2.393697 -13.462383 14.955425 7.899361 -1.091102 0.048989 69.226189 32.609615 32.006802 138.311554 -5.000000 29.037724 -10.270979 1.712621 6.716803 9.523747 35.043587 39.988491 113.480804 9.967842 -20.678852 -20.149382 11.058834 -23.657881 -66.690590 -0.273478 -7.252632 76.219498 2.551136 13.241635 -21.697397 -1.263299 24.376482 
9.158964 32.868889 31.246315 -25.490829 15.410278 99.201347 57.097752 -4.655937 16.210455 -1.970738 6.136826 -7.083162 -21.025179 4.308069 -1.226878 -0.456284 8.833416 5.723478 -11.481598 10.188807 0.533139 -51.263939 -57.897007 12.619406 -109.091553 -5.000000 -1.246179 2.381024 -13.543457 14.510606 7.772254 -0.876523 0.037897 71.155327 31.870968 33.565231 137.684647 -5.000000 28.144548 -9.392242 1.237264 7.378181 10.394671 34.264420 39.982773 112.752983 9.970235 -20.906834 -20.091936 11.458943 -22.909723 -65.798615 0.019556 -9.419891 74.731766 2.734905 12.415722 -23.388437 -4.089497 22.756851 
8.617801 32.883255 30.469709 -26.758030 14.507370 95.135536 56.537960 -3.891719 16.226873 -1.811390 6.232841 -7.388013 -20.896032 4.544986 -1.292995 0.021419 8.561217 6.351515 -11.684315 9.935249 0.520064 -53.106564 -55.505314 13.588768 -109.827866 -5.000000 -1.407161 2.288000 -13.787413 14.275322 7.586640 -0.759460 0.031844 72.678635 31.201851 34.755898 137.002518 -5.000000 27.221922 -8.543407 0.817964 7.916058 11.109071 33.386593 39.973564 112.710823 9.958591 -20.666243 -20.740482 12.370222 -21.188496 -65.491600 0.673798 -10.708283 75.406143 2.473513 11.758344 -24.786928 -6.087432 20.337252 
8.100463 32.880196 29.699097 -27.881413 13.493705 91.068573 55.985260 -3.236341 16.282335 -1.679019 6.319182 -7.662635 -20.757055 4.762585 -1.356230 0.521580 8.260408 6.928517 -11.867303 9.652435 0.505467 -54.832474 -53.137852 14.424835 -110.524078 -5.000000 -1.551505 2.174986 -14.071943 14.091584 7.401048 -0.661902 0.026799 74.089989 30.527193 35.849796 136.302475 -5.000000 26.289154 -7.698785 0.407957 8.409728 11.810267 32.496281 39.988171 112.849144 9.969120 -20.321272 -21.612253 13.346125 -19.219042 -65.364342 1.396668 -11.803789 76.645111 2.090087 11.112123 -26.142498 -7.774345 17.722996 
7.619176 32.863552 28.940529 -28.823616 12.385661 86.893456 55.439495 -2.808443 16.491924 -1.635884 6.376753 -7.839964 -20.625341 4.934863 -1.392963 1.064842 7.950856 7.446313 -11.981085 9.262344 0.483743 -56.386887 -50.867538 15.176871 -111.197098 -5.000000 -1.658088 2.021131 -14.385210 14.096506 7.283844 -0.622872 0.024780 75.349136 29.859472 36.818367 135.642059 -5.000000 25.401274 -6.886607 0.079461 8.911386 12.527505 31.513212 39.984131 113.249710 9.959258 -19.782150 -22.693598 14.336679 -16.850679 -65.399376 2.285086 -12.349956 78.993515 1.545069 10.774721 -27.262718 -9.078190 15.327683 
7.191878 32.826515 28.199902 -29.540615 11.178308 82.532021 54.918430 -2.741032 16.911411 -1.714009 6.376753 -7.849731 -20.500280 5.012086 -1.404648 1.670191 7.642807 7.884232 -11.996097 8.716215 0.455584 -57.839565 -48.735790 15.923790 -111.852776 -5.000000 -1.698515 1.798011 -14.725155 14.351696 7.293630 -0.671637 0.027300 76.392151 29.224806 37.645695 135.041122 -5.000000 24.601839 -6.108255 -0.127436 9.421174 13.263160 30.464832 39.981430 114.071938 9.960027 -19.006889 -24.046350 15.171645 -13.958290 -65.680710 3.466426 -12.040149 83.034111 0.782826 10.718282 -27.871916 -9.821542 13.361535 
6.764643 32.789467 27.459347 -30.158689 9.922378 78.201462 54.403244 -2.658729 17.336174 -1.801581 6.386573 -7.849791 -20.364614 5.090785 -1.406715 2.268176 7.325461 8.311414 -12.000257 8.172115 0.416540 -59.188179 -46.586662 16.560469 -112.498810 -5.000000 -1.736786 1.576149 -15.075619 14.619178 7.293653 -0.720400 0.029821 77.419861 28.574364 38.442917 134.441284 -5.000000 23.793694 -5.332410 -0.339458 9.916269 13.999440 29.422146 39.963242 114.874313 9.950711 -18.236488 -25.425241 15.997041 -11.024491 -65.969406 4.628901 -11.738635 87.070168 0.010406 10.615911 -28.470982 -10.529807 11.399225 
6.448429 32.756454 26.740736 -30.707739 8.538145 73.952797 53.968456 -2.033081 16.881617 -1.951802 6.341689 -6.352005 -20.163555 5.000159 -1.352792 2.997545 7.028238 8.708579 -11.866237 7.138341 0.363204 -60.114700 -44.452324 17.127127 -113.251076 -5.000000 -1.666323 1.166637 -15.285139 15.144814 7.655022 -0.798482 0.033862 78.143417 27.917509 39.153267 133.947830 -5.000000 23.142321 -4.627008 -0.382885 10.414372 14.454558 28.541672 39.979301 116.147514 9.948803 -17.281069 -26.636494 16.554342 -7.941161 -65.709457 5.820028 -10.823036 92.672768 -1.142329 11.028481 -28.703245 -10.818335 9.811411 
6.132296 32.723450 26.022196 -31.156614 7.116081 69.727951 53.528362 -1.406129 16.417162 -2.102320 6.306154 -4.855355 -19.962429 4.899873 -1.298259 3.723213 6.741115 9.097472 -11.733272 6.114312 0.309215 -60.980625 -42.303787 17.624027 -114.012711 -5.000000 -1.584428 0.750412 -15.498278 15.674235 8.006630 -0.876562 0.037902 78.863403 27.235363 39.865440 133.465393 -5.000000 22.497364 -3.932488 -0.436141 10.922728 14.916553 27.693176 39.975246 117.409256 9.909094 -16.329056 -27.840462 16.944761 -4.864699 -65.415977 7.030956 -9.877323 98.237564 -2.324603 11.297916 -28.948200 -11.146375 8.236159 
5.888780 32.707848 25.319231 -31.792444 5.551108 65.686211 53.098576 -0.588902 16.923258 -2.421031 6.182048 -3.913935 -19.708532 4.646598 -1.209907 4.517125 6.483368 9.475707 -11.492349 4.739170 0.237386 -61.519321 -40.127914 17.986141 -114.860748 -4.926000 -1.478815 0.316615 -15.601260 16.225973 8.494974 -0.974171 0.042955 79.427628 26.585264 40.588146 133.001251 -5.000000 21.876215 -3.273520 -0.476628 11.401299 15.299571 27.274078 39.988106 118.788078 9.841428 -15.396230 -29.017317 17.137491 -2.059752 -64.123878 8.173960 -8.880626 103.715881 -3.592516 11.541120 -29.208239 -11.381282 6.594076 
5.693727 32.703880 24.626703 -32.505848 3.867354 61.775723 52.684162 0.386196 18.070206 -2.850666 6.028111 -3.354291 -19.431299 4.281872 -1.074441 5.350084 6.245132 9.854138 -11.174362 3.120193 0.153873 -61.844353 -37.938732 18.267212 -115.795486 -4.512517 -1.350687 -0.126580 -15.636318 16.805061 9.061463 -1.081545 0.048515 79.892593 25.930662 41.319828 132.529770 -5.000000 21.250183 -2.642301 -0.512187 11.889855 15.574760 27.148315 39.975094 120.254822 9.773638 -14.488820 -30.079508 17.099394 0.547086 -62.168430 9.227817 -7.742954 109.107124 -4.943596 11.744802 -29.493567 -11.379539 5.100553 
5.526503 32.707302 23.943972 -33.222385 2.076952 58.009773 52.332275 1.601650 19.276453 -3.295885 5.825184 -2.726522 -19.106646 3.877025 -0.943561 6.210649 6.026744 10.213331 -10.819593 1.413429 0.065462 -62.045467 -35.708031 18.483145 -116.731117 -4.122719 -1.213550 -0.559235 -15.655632 17.357368 9.667203 -1.167780 0.062693 80.274544 25.254181 41.997849 132.051025 -5.000000 20.589228 -2.021230 -0.557552 12.349778 15.834558 27.214842 39.975365 121.650040 9.685170 -13.645706 -31.114151 17.096392 3.063576 -59.788204 10.184793 -6.561667 114.243576 -6.223569 11.747416 -29.793938 -11.381649 3.684732 
5.470542 32.740334 23.300512 -34.283524 -0.011279 54.726563 52.203388 3.760036 20.716990 -3.800442 5.475958 -1.804737 -18.585524 3.328793 -0.781160 7.133678 5.876909 10.515387 -10.360406 -0.701210 -0.053183 -61.838627 -33.330837 18.505384 -117.747856 -3.816782 -1.097509 -0.896941 -15.601355 17.821575 10.409369 -1.148275 0.061685 80.385880 24.452454 42.455860 131.488968 -5.000000 19.751484 -1.423404 -0.630125 12.713180 16.025648 28.052561 39.986233 122.860474 9.655579 -13.088998 -32.131874 16.869171 5.104928 -55.755733 10.828797 -5.160689 118.217133 -7.171129 11.534839 -30.328054 -11.334351 2.612147 
5.414635 32.773384 22.657057 -35.221767 -2.160376 51.486431 52.099812 5.925184 22.157814 -4.301922 5.135695 -0.883061 -18.057440 2.779060 -0.628427 8.056131 5.727008 10.826221 -9.895263 -2.819358 -0.153035 -61.638653 -30.950459 18.539412 -118.765007 -3.524384 -0.975036 -1.221399 -15.546272 18.276211 11.151537 -1.128770 0.060677 80.488304 23.647715 42.913639 130.945831 -5.000000 18.925161 -0.828692 -0.720021 13.066743 16.184946 28.903711 39.975071 124.091492 9.616731 -12.492883 -33.141068 16.607599 7.127572 -51.732742 11.375579 -3.745729 122.233627 -8.119808 11.246287 -30.824610 -11.245533 1.571121 
5.471528 32.807186 22.112093 -36.035027 -4.501695 49.089531 51.868496 8.896204 23.383312 -4.678911 4.618966 0.105894 -17.258392 2.267920 -0.481601 9.020448 5.675884 10.992354 -9.308137 -4.924431 -0.272101 -61.318924 -28.499655 18.363047 -119.752914 -3.514955 -1.011821 -1.364795 -15.470920 18.635826 11.893543 -0.933718 0.050596 80.371864 22.703087 42.912937 130.343185 -5.000000 17.850189 -0.226121 -0.960061 13.253823 15.939649 30.221090 39.987453 124.892921 9.665993 -12.184925 -34.262314 16.313211 8.627420 -46.517746 11.199630 -2.321187 124.666893 -8.462568 10.764753 -31.272676 -11.181952 1.146083 
5.556670 32.841179 21.591812 -36.744041 -6.907066 46.926636 51.640156 12.078671 24.558060 -5.037731 4.062485 1.114272 -16.393574 1.763492 -0.355622 10.004910 5.644495 11.129342 -8.685493 -7.021421 -0.381399 -61.005699 -26.024513 18.153944 -120.733635 -3.570795 -1.094273 -1.447405 -15.392380 18.964790 12.645325 -0.699655 0.038499 80.197014 21.722828 42.790058 129.751144 -5.000000 16.731197 0.383821 -1.255743 13.377752 15.555891 31.669647 39.950050 125.574287 9.733662 -11.975137 -35.408028 15.957943 10.017333 -41.015015 10.762178 -0.952911 126.688835 -8.659771 10.225305 -31.760000 -11.120312 0.855090 
5.656578 32.847141 21.145958 -36.996712 -9.172481 45.125008 51.021091 15.226662 25.222759 -5.246043 3.525079 2.023045 -15.433409 1.383116 -0.258613 10.921743 5.662710 11.178887 -8.004527 -8.846703 -0.467272 -60.801647 -23.628229 17.849092 -121.653389 -3.808723 -1.289398 -1.391814 -15.332752 19.313406 13.358086 -0.446087 0.025392 80.022835 20.768913 42.501274 129.201614 -5.000000 15.580091 1.000299 -1.614146 13.407517 14.662684 32.995296 36.488827 126.085876 9.832649 -11.871177 -36.555794 15.635830 11.144437 -35.394169 9.744439 0.105165 127.963249 -8.576732 9.692646 -32.087391 -11.007437 0.786082 
